<?xml version="1.0" standalone="no"?>
<!DOCTYPE svg PUBLIC "-//W3C//DTD SVG 20010904//EN"
 "http://www.w3.org/TR/2001/REC-SVG-20010904/DTD/svg10.dtd">
<svg version="1.0" xmlns="http://www.w3.org/2000/svg"
 width="564.000000pt" height="563.000000pt" viewBox="0 0 564.000000 563.000000"
 preserveAspectRatio="xMidYMid meet">

<g transform="translate(0.000000,563.000000) scale(0.100000,-0.100000)"
fill="#000000" stroke="none">
<path d="M3165 5179 c607 -138 1165 -523 1507 -1040 133 -201 248 -456 312
-690 104 -383 119 -723 46 -1086 -100 -502 -331 -941 -665 -1265 -326 -315
-670 -515 -1085 -629 -125 -34 -69 -30 110 7 432 91 858 292 1166 551 170 143
378 383 492 569 240 390 342 749 342 1204 0 536 -141 960 -464 1390 -94 126
-337 370 -456 458 -343 255 -729 425 -1159 512 -132 27 -244 41 -146 19z"/>
<path d="M2440 4519 c-201 -26 -366 -76 -555 -170 -182 -89 -302 -176 -450
-324 -147 -147 -234 -268 -325 -450 -124 -250 -168 -428 -177 -710 -4 -138 -1
-208 11 -298 28 -199 103 -424 198 -595 242 -438 670 -752 1157 -852 133 -27
330 -43 421 -34 l75 7 -100 17 c-55 10 -129 25 -165 35 -168 44 -391 151 -550
263 -115 81 -294 257 -379 372 -587 796 -394 1908 428 2461 192 129 386 209
631 260 l135 27 -145 0 c-80 0 -174 -4 -210 -9z"/>
<path d="M3479 3932 c6 -11 103 -164 216 -342 113 -178 210 -331 216 -341 7
-15 -6 -40 -66 -128 -41 -60 -75 -112 -75 -116 0 -3 19 -5 43 -3 42 3 43 4
115 112 42 63 70 116 67 125 -3 8 -26 45 -50 83 -25 37 -65 98 -88 136 -24 37
-75 114 -113 172 -38 58 -73 112 -77 120 -14 25 -50 84 -89 144 -34 51 -41 56
-73 56 -32 0 -35 -2 -26 -18z"/>
<path d="M2004 3489 c-71 -111 -133 -208 -137 -215 -6 -11 1 -14 33 -14 39 0
42 2 85 69 63 99 152 237 191 298 19 28 34 54 34 57 0 3 -17 6 -38 6 l-38 0
-130 -201z"/>
<path d="M3408 3263 c18 -2 45 -2 60 0 15 2 0 4 -33 4 -33 0 -45 -2 -27 -4z"/>
<path d="M2838 2993 c122 -2 322 -2 445 0 122 1 22 2 -223 2 -245 0 -345 -1
-222 -2z"/>
<path d="M1950 2986 c0 -2 97 -145 216 -318 118 -172 279 -406 357 -520 78
-115 145 -208 150 -208 4 0 12 11 18 24 10 20 8 30 -10 54 -11 17 -21 34 -21
39 0 5 -11 20 -25 33 -14 13 -25 29 -25 35 0 7 -9 20 -20 30 -11 10 -20 25
-20 34 0 9 -14 31 -30 50 -17 19 -60 82 -97 140 -37 58 -80 121 -95 139 -15
18 -28 37 -28 42 0 5 -22 39 -50 76 -27 37 -50 73 -50 80 0 7 -6 17 -13 21
-13 8 -107 145 -107 156 0 3 -14 26 -31 51 -28 43 -33 46 -75 46 -24 0 -44 -2
-44 -4z"/>
<path d="M3497 2578 c-3 -7 -175 -260 -382 -563 -208 -302 -378 -557 -379
-565 -1 -9 9 -16 26 -18 20 -2 30 3 40 20 7 13 49 75 93 138 83 119 343 501
540 796 63 94 115 179 115 188 0 19 -45 22 -53 4z"/>
<path d="M1905 995 c-27 -13 -43 -24 -35 -24 8 -1 37 10 64 24 62 32 38 32
-29 0z"/>
<path d="M1745 941 l-26 -70 -55 -16 c-75 -22 -68 -37 8 -17 l63 17 27 70 c21
55 31 69 45 67 15 -2 16 -1 3 7 -28 20 -38 11 -65 -58z"/>
<path d="M3550 965 c0 -5 5 -17 10 -25 5 -8 10 -10 10 -5 0 6 -5 17 -10 25 -5
8 -10 11 -10 5z"/>
<path d="M2416 949 c-9 -30 -14 -99 -6 -99 10 0 25 99 16 107 -3 3 -8 0 -10
-8z"/>
<path d="M3095 913 c-26 -28 -40 -33 -108 -43 -43 -5 -96 -10 -118 -10 -21 0
-39 -5 -39 -11 0 -11 16 -10 185 12 66 9 83 15 98 35 29 39 15 53 -18 17z"/>
<path d="M1992 914 c-12 -8 -22 -26 -22 -39 0 -30 15 -41 17 -12 3 29 29 47
72 48 33 1 34 2 11 9 -39 12 -54 11 -78 -6z"/>
<path d="M2700 888 c0 -18 -9 -48 -21 -67 -20 -34 -20 -49 1 -36 29 18 52 117
30 130 -6 4 -10 -7 -10 -27z"/>
<path d="M2108 903 c7 -3 16 -2 19 1 4 3 -2 6 -13 5 -11 0 -14 -3 -6 -6z"/>
<path d="M3580 885 c0 -5 5 -17 10 -25 5 -8 10 -10 10 -5 0 6 -5 17 -10 25 -5
8 -10 11 -10 5z"/>
<path d="M2271 847 c-2 -103 -95 -157 -231 -134 -34 6 -34 6 5 -8 82 -28 185
-6 218 47 22 33 29 80 18 109 -9 22 -10 21 -10 -14z"/>
<path d="M3260 864 c0 -3 9 -41 20 -85 12 -44 18 -84 15 -89 -4 -6 -1 -10 4
-10 15 0 14 13 -9 99 -10 41 -17 78 -14 83 3 4 0 8 -5 8 -6 0 -11 -3 -11 -6z"/>
<path d="M3085 804 c0 -19 3 -34 8 -34 4 0 7 13 7 29 0 17 -3 32 -7 34 -5 3
-8 -10 -8 -29z"/>
<path d="M3598 823 c-4 -15 -20 -24 -57 -34 -35 -9 -47 -15 -37 -21 10 -6 98
15 114 27 1 1 -1 13 -6 25 -8 23 -9 23 -14 3z"/>
<path d="M3023 763 c9 -2 23 -2 30 0 6 3 -1 5 -18 5 -16 0 -22 -2 -12 -5z"/>
<path d="M2390 730 c0 -14 -3 -36 -7 -49 -5 -21 -10 -23 -50 -18 -25 2 -41 1
-36 -3 4 -4 29 -10 56 -13 l47 -5 0 37 c0 59 8 64 91 57 46 -4 66 -3 54 3 -11
4 -50 10 -87 13 -67 4 -68 4 -68 -22z"/>
<path d="M2938 753 c12 -2 30 -2 40 0 9 3 -1 5 -23 4 -22 0 -30 -2 -17 -4z"/>
<path d="M2843 743 c9 -2 25 -2 35 0 9 3 1 5 -18 5 -19 0 -27 -2 -17 -5z"/>
<path d="M3156 723 c5 -25 2 -32 -12 -37 -34 -9 -243 -36 -297 -37 -29 -1 -63
-5 -77 -9 -64 -21 159 -7 336 21 l71 11 -7 35 c-10 43 -22 58 -14 16z"/>
<path d="M2700 713 c0 -15 -15 -34 -45 -55 -24 -18 -44 -39 -45 -46 0 -15 6
-12 68 33 42 30 50 48 32 75 -8 12 -10 11 -10 -7z"/>
<path d="M3138 433 c7 -3 16 -2 19 1 4 3 -2 6 -13 5 -11 0 -14 -3 -6 -6z"/>
</g>
</svg>
